<mxfile host="65bd71144e">
    <diagram name="Page-1" id="YutSI7smavdidKVXhJqC">
        <mxGraphModel dx="1714" dy="984" grid="1" gridSize="10" guides="1" tooltips="1" connect="1" arrows="1" fold="1" page="1" pageScale="1" pageWidth="1100" pageHeight="850" math="0" shadow="0">
            <root>
                <mxCell id="0"/>
                <mxCell id="1" parent="0"/>
                <mxCell id="x8476iQVBlh_GbGHP3KB-12" value="Data log" style="rounded=0;whiteSpace=wrap;html=1;" parent="1" vertex="1">
                    <mxGeometry x="9.999999999999947" y="500" width="120" height="60" as="geometry"/>
                </mxCell>
                <mxCell id="x8476iQVBlh_GbGHP3KB-121" value="&lt;span style=&quot;font-size: 36px;&quot;&gt;Software Architecture&lt;/span&gt;" style="text;html=1;align=center;verticalAlign=middle;whiteSpace=wrap;rounded=0;" parent="1" vertex="1">
                    <mxGeometry y="10" width="360" height="40" as="geometry"/>
                </mxCell>
                <mxCell id="x8476iQVBlh_GbGHP3KB-122" value="ArduPilot" style="rounded=0;whiteSpace=wrap;html=1;" parent="1" vertex="1">
                    <mxGeometry x="320" y="305" width="120" height="60" as="geometry"/>
                </mxCell>
                <mxCell id="x8476iQVBlh_GbGHP3KB-130" value="" style="endArrow=classic;startArrow=classic;html=1;rounded=0;exitX=1;exitY=0.5;exitDx=0;exitDy=0;" parent="1" source="x8476iQVBlh_GbGHP3KB-122" edge="1">
                    <mxGeometry width="50" height="50" relative="1" as="geometry">
                        <mxPoint x="460.06" y="285" as="sourcePoint"/>
                        <mxPoint x="580" y="335" as="targetPoint"/>
                    </mxGeometry>
                </mxCell>
                <mxCell id="112" value="mavlink stream" style="edgeLabel;html=1;align=center;verticalAlign=middle;resizable=0;points=[];" parent="x8476iQVBlh_GbGHP3KB-130" vertex="1" connectable="0">
                    <mxGeometry x="0.2078" y="-2" relative="1" as="geometry">
                        <mxPoint x="-16" y="-2" as="offset"/>
                    </mxGeometry>
                </mxCell>
                <mxCell id="x8476iQVBlh_GbGHP3KB-203" value="" style="group" parent="1" vertex="1" connectable="0">
                    <mxGeometry x="10" y="640" width="305" height="60" as="geometry"/>
                </mxCell>
                <mxCell id="x8476iQVBlh_GbGHP3KB-22" value="Time Calc" style="rounded=0;whiteSpace=wrap;html=1;dashed=1;dashPattern=1 1;" parent="x8476iQVBlh_GbGHP3KB-203" vertex="1">
                    <mxGeometry width="120" height="60" as="geometry"/>
                </mxCell>
                <mxCell id="x8476iQVBlh_GbGHP3KB-234" value="" style="endArrow=classic;html=1;rounded=0;dashed=1;exitX=1;exitY=0.5;exitDx=0;exitDy=0;dashPattern=1 1;" parent="x8476iQVBlh_GbGHP3KB-203" source="x8476iQVBlh_GbGHP3KB-22" edge="1">
                    <mxGeometry width="50" height="50" relative="1" as="geometry">
                        <mxPoint x="127.5" y="40" as="sourcePoint"/>
                        <mxPoint x="300" y="30" as="targetPoint"/>
                    </mxGeometry>
                </mxCell>
                <mxCell id="x8476iQVBlh_GbGHP3KB-235" value="time calc functions" style="edgeLabel;html=1;align=center;verticalAlign=middle;resizable=0;points=[];" parent="x8476iQVBlh_GbGHP3KB-234" vertex="1" connectable="0">
                    <mxGeometry x="-0.6517" relative="1" as="geometry">
                        <mxPoint x="49" as="offset"/>
                    </mxGeometry>
                </mxCell>
                <mxCell id="x8476iQVBlh_GbGHP3KB-204" value="" style="group;dashed=1;" parent="1" vertex="1" connectable="0">
                    <mxGeometry x="10" y="710" width="305" height="60" as="geometry"/>
                </mxCell>
                <mxCell id="x8476iQVBlh_GbGHP3KB-20" value="PID Controller" style="rounded=0;whiteSpace=wrap;html=1;dashed=1;dashPattern=1 1;" parent="x8476iQVBlh_GbGHP3KB-204" vertex="1">
                    <mxGeometry width="120" height="60" as="geometry"/>
                </mxCell>
                <mxCell id="x8476iQVBlh_GbGHP3KB-236" value="" style="endArrow=classic;html=1;rounded=0;dashed=1;exitX=1;exitY=0.5;exitDx=0;exitDy=0;dashPattern=1 1;" parent="x8476iQVBlh_GbGHP3KB-204" edge="1">
                    <mxGeometry width="50" height="50" relative="1" as="geometry">
                        <mxPoint x="120" y="29.659999999999968" as="sourcePoint"/>
                        <mxPoint x="300" y="29.659999999999968" as="targetPoint"/>
                    </mxGeometry>
                </mxCell>
                <mxCell id="x8476iQVBlh_GbGHP3KB-237" value="control parameters" style="edgeLabel;html=1;align=center;verticalAlign=middle;resizable=0;points=[];" parent="x8476iQVBlh_GbGHP3KB-236" vertex="1" connectable="0">
                    <mxGeometry x="-0.6517" relative="1" as="geometry">
                        <mxPoint x="49" as="offset"/>
                    </mxGeometry>
                </mxCell>
                <mxCell id="x8476iQVBlh_GbGHP3KB-205" value="" style="group;dashed=1;" parent="1" vertex="1" connectable="0">
                    <mxGeometry x="10" y="780" width="310" height="60" as="geometry"/>
                </mxCell>
                <mxCell id="x8476iQVBlh_GbGHP3KB-19" value="Parameters" style="rounded=0;whiteSpace=wrap;html=1;dashed=1;dashPattern=1 1;" parent="x8476iQVBlh_GbGHP3KB-205" vertex="1">
                    <mxGeometry width="120" height="60" as="geometry"/>
                </mxCell>
                <mxCell id="x8476iQVBlh_GbGHP3KB-238" value="" style="endArrow=classic;html=1;rounded=0;dashed=1;exitX=1;exitY=0.5;exitDx=0;exitDy=0;dashPattern=1 1;" parent="x8476iQVBlh_GbGHP3KB-205" edge="1">
                    <mxGeometry width="50" height="50" relative="1" as="geometry">
                        <mxPoint x="120" y="29.659999999999968" as="sourcePoint"/>
                        <mxPoint x="300" y="29.659999999999968" as="targetPoint"/>
                    </mxGeometry>
                </mxCell>
                <mxCell id="x8476iQVBlh_GbGHP3KB-239" value="dynamically change params" style="edgeLabel;html=1;align=center;verticalAlign=middle;resizable=0;points=[];" parent="x8476iQVBlh_GbGHP3KB-238" vertex="1" connectable="0">
                    <mxGeometry x="-0.6517" relative="1" as="geometry">
                        <mxPoint x="59" as="offset"/>
                    </mxGeometry>
                </mxCell>
                <mxCell id="78" value="" style="group" parent="1" vertex="1" connectable="0">
                    <mxGeometry x="980" y="277.5" width="230.05999999999995" height="60" as="geometry"/>
                </mxCell>
                <mxCell id="70" style="edgeStyle=orthogonalEdgeStyle;rounded=0;orthogonalLoop=1;jettySize=auto;html=1;" parent="78" edge="1">
                    <mxGeometry relative="1" as="geometry">
                        <mxPoint x="40.059999999999945" y="29.230000000000132" as="targetPoint"/>
                        <mxPoint x="-69.94000000000005" y="29.230000000000132" as="sourcePoint"/>
                        <Array as="points">
                            <mxPoint x="0.05999999999994543" y="29.230000000000018"/>
                        </Array>
                    </mxGeometry>
                </mxCell>
                <mxCell id="71" value="num detections" style="edgeLabel;html=1;align=center;verticalAlign=middle;resizable=0;points=[];" parent="70" vertex="1" connectable="0">
                    <mxGeometry x="-0.0238" y="-2" relative="1" as="geometry">
                        <mxPoint y="-2" as="offset"/>
                    </mxGeometry>
                </mxCell>
                <mxCell id="72" style="edgeStyle=orthogonalEdgeStyle;rounded=0;orthogonalLoop=1;jettySize=auto;html=1;" parent="78" edge="1">
                    <mxGeometry relative="1" as="geometry">
                        <mxPoint x="40" y="54.639999999999986" as="targetPoint"/>
                        <mxPoint x="-70" y="54.639999999999986" as="sourcePoint"/>
                        <Array as="points">
                            <mxPoint y="54.63999999999987"/>
                        </Array>
                    </mxGeometry>
                </mxCell>
                <mxCell id="73" value="detection" style="edgeLabel;html=1;align=center;verticalAlign=middle;resizable=0;points=[];" parent="72" vertex="1" connectable="0">
                    <mxGeometry x="-0.1212" y="-3" relative="1" as="geometry">
                        <mxPoint x="2" y="-3" as="offset"/>
                    </mxGeometry>
                </mxCell>
                <mxCell id="75" style="edgeStyle=orthogonalEdgeStyle;rounded=0;orthogonalLoop=1;jettySize=auto;html=1;" parent="78" edge="1">
                    <mxGeometry relative="1" as="geometry">
                        <mxPoint x="40.05999999999972" y="4.6099999999999" as="targetPoint"/>
                        <mxPoint x="-69.94000000000005" y="4.6099999999999" as="sourcePoint"/>
                        <Array as="points">
                            <mxPoint x="0.05999999999994543" y="4.6099999999999"/>
                        </Array>
                    </mxGeometry>
                </mxCell>
                <mxCell id="76" value="valid image" style="edgeLabel;html=1;align=center;verticalAlign=middle;resizable=0;points=[];" parent="75" vertex="1" connectable="0">
                    <mxGeometry x="-0.1212" y="-3" relative="1" as="geometry">
                        <mxPoint x="2" y="-3" as="offset"/>
                    </mxGeometry>
                </mxCell>
                <mxCell id="34" value="Track Target" style="rounded=0;whiteSpace=wrap;html=1;container=0;" parent="78" vertex="1">
                    <mxGeometry x="40.059999999999945" width="120" height="60" as="geometry"/>
                </mxCell>
                <mxCell id="36" style="edgeStyle=orthogonalEdgeStyle;rounded=0;orthogonalLoop=1;jettySize=auto;html=1;" parent="78" edge="1">
                    <mxGeometry relative="1" as="geometry">
                        <mxPoint x="290.05999999999995" y="20" as="targetPoint"/>
                        <mxPoint x="160.05999999999995" y="19.769999999999868" as="sourcePoint"/>
                        <Array as="points">
                            <mxPoint x="180.1199999999999" y="19.769999999999982"/>
                            <mxPoint x="180.1199999999999" y="19.769999999999982"/>
                        </Array>
                    </mxGeometry>
                </mxCell>
                <mxCell id="37" value="target bounding box" style="edgeLabel;html=1;align=center;verticalAlign=middle;resizable=0;points=[];container=0;" parent="36" vertex="1" connectable="0">
                    <mxGeometry x="-0.1212" y="-3" relative="1" as="geometry">
                        <mxPoint x="2" y="-3" as="offset"/>
                    </mxGeometry>
                </mxCell>
                <mxCell id="38" style="edgeStyle=orthogonalEdgeStyle;rounded=0;orthogonalLoop=1;jettySize=auto;html=1;" parent="78" edge="1">
                    <mxGeometry relative="1" as="geometry">
                        <mxPoint x="290.05999999999995" y="39" as="targetPoint"/>
                        <mxPoint x="160.05999999999995" y="39.479999999999905" as="sourcePoint"/>
                        <Array as="points">
                            <mxPoint x="230.05999999999995" y="39.479999999999905"/>
                        </Array>
                    </mxGeometry>
                </mxCell>
                <mxCell id="39" value="bounding box loc" style="edgeLabel;html=1;align=center;verticalAlign=middle;resizable=0;points=[];container=0;" parent="38" vertex="1" connectable="0">
                    <mxGeometry x="-0.1212" y="-3" relative="1" as="geometry">
                        <mxPoint x="2" y="-3" as="offset"/>
                    </mxGeometry>
                </mxCell>
                <mxCell id="83" value="" style="group" parent="1" vertex="1" connectable="0">
                    <mxGeometry x="590" y="470" width="230" height="100" as="geometry"/>
                </mxCell>
                <mxCell id="13" style="edgeStyle=orthogonalEdgeStyle;rounded=0;orthogonalLoop=1;jettySize=auto;html=1;" parent="83" source="15" edge="1">
                    <mxGeometry relative="1" as="geometry">
                        <mxPoint x="230" y="20" as="targetPoint"/>
                        <Array as="points">
                            <mxPoint x="230" y="20"/>
                        </Array>
                    </mxGeometry>
                </mxCell>
                <mxCell id="14" value="video height" style="edgeLabel;html=1;align=center;verticalAlign=middle;resizable=0;points=[];container=0;" parent="13" vertex="1" connectable="0">
                    <mxGeometry x="-0.0238" y="-2" relative="1" as="geometry">
                        <mxPoint y="-2" as="offset"/>
                    </mxGeometry>
                </mxCell>
                <mxCell id="15" value="Video IO" style="rounded=0;whiteSpace=wrap;html=1;container=0;" parent="83" vertex="1">
                    <mxGeometry width="120" height="100" as="geometry"/>
                </mxCell>
                <mxCell id="16" style="edgeStyle=orthogonalEdgeStyle;rounded=0;orthogonalLoop=1;jettySize=auto;html=1;" parent="83" edge="1">
                    <mxGeometry relative="1" as="geometry">
                        <mxPoint x="230" y="40" as="targetPoint"/>
                        <mxPoint x="120" y="40" as="sourcePoint"/>
                        <Array as="points">
                            <mxPoint x="190" y="40"/>
                        </Array>
                    </mxGeometry>
                </mxCell>
                <mxCell id="17" value="video width" style="edgeLabel;html=1;align=center;verticalAlign=middle;resizable=0;points=[];container=0;" parent="16" vertex="1" connectable="0">
                    <mxGeometry x="-0.0238" y="-2" relative="1" as="geometry">
                        <mxPoint y="-2" as="offset"/>
                    </mxGeometry>
                </mxCell>
                <mxCell id="18" style="edgeStyle=orthogonalEdgeStyle;rounded=0;orthogonalLoop=1;jettySize=auto;html=1;" parent="83" edge="1">
                    <mxGeometry relative="1" as="geometry">
                        <mxPoint x="230" y="60" as="targetPoint"/>
                        <mxPoint x="120" y="60" as="sourcePoint"/>
                        <Array as="points">
                            <mxPoint x="190" y="60"/>
                        </Array>
                    </mxGeometry>
                </mxCell>
                <mxCell id="19" value="image" style="edgeLabel;html=1;align=center;verticalAlign=middle;resizable=0;points=[];container=0;" parent="18" vertex="1" connectable="0">
                    <mxGeometry x="-0.0238" y="-2" relative="1" as="geometry">
                        <mxPoint y="-2" as="offset"/>
                    </mxGeometry>
                </mxCell>
                <mxCell id="20" style="edgeStyle=orthogonalEdgeStyle;rounded=0;orthogonalLoop=1;jettySize=auto;html=1;" parent="83" edge="1">
                    <mxGeometry relative="1" as="geometry">
                        <mxPoint x="230" y="79.57999999999993" as="targetPoint"/>
                        <mxPoint x="120" y="79.57999999999993" as="sourcePoint"/>
                        <Array as="points">
                            <mxPoint x="190" y="79.57999999999993"/>
                        </Array>
                    </mxGeometry>
                </mxCell>
                <mxCell id="21" value="valid image" style="edgeLabel;html=1;align=center;verticalAlign=middle;resizable=0;points=[];container=0;" parent="20" vertex="1" connectable="0">
                    <mxGeometry x="-0.1212" y="-3" relative="1" as="geometry">
                        <mxPoint x="2" y="-3" as="offset"/>
                    </mxGeometry>
                </mxCell>
                <mxCell id="111" value="" style="group" parent="1" vertex="1" connectable="0">
                    <mxGeometry x="400.06" y="30" width="229.94" height="80" as="geometry"/>
                </mxCell>
                <mxCell id="89" value="" style="group" parent="111" vertex="1" connectable="0">
                    <mxGeometry x="190" y="20" width="229.94" height="80" as="geometry"/>
                </mxCell>
                <mxCell id="x8476iQVBlh_GbGHP3KB-15" value="Mavlink Commands" style="rounded=0;whiteSpace=wrap;html=1;dashed=1;dashPattern=1 1;container=0;" parent="89" vertex="1">
                    <mxGeometry width="119.94" height="80" as="geometry"/>
                </mxCell>
                <mxCell id="99" style="edgeStyle=none;html=1;exitX=1;exitY=0.5;exitDx=0;exitDy=0;dashed=1;dashPattern=1 1;strokeWidth=1;" parent="111" source="x8476iQVBlh_GbGHP3KB-15" edge="1">
                    <mxGeometry relative="1" as="geometry">
                        <mxPoint x="419.94" y="60" as="targetPoint"/>
                    </mxGeometry>
                </mxCell>
                <mxCell id="100" value="mav command" style="edgeLabel;html=1;align=center;verticalAlign=middle;resizable=0;points=[];" parent="99" vertex="1" connectable="0">
                    <mxGeometry x="-0.1389" y="1" relative="1" as="geometry">
                        <mxPoint y="1" as="offset"/>
                    </mxGeometry>
                </mxCell>
                <mxCell id="115" value="" style="group" parent="1" vertex="1" connectable="0">
                    <mxGeometry x="480.12" y="145" width="339.94" height="80" as="geometry"/>
                </mxCell>
                <mxCell id="109" value="" style="group" parent="115" vertex="1" connectable="0">
                    <mxGeometry x="109.99999999999994" width="229.94" height="80" as="geometry"/>
                </mxCell>
                <mxCell id="110" value="Mavlink Motion" style="rounded=0;whiteSpace=wrap;html=1;dashed=1;dashPattern=1 1;container=0;" parent="109" vertex="1">
                    <mxGeometry width="119.94" height="80" as="geometry"/>
                </mxCell>
                <mxCell id="101" style="edgeStyle=none;html=1;dashed=1;dashPattern=1 1;strokeWidth=1;exitX=1;exitY=0.5;exitDx=0;exitDy=0;" parent="109" edge="1">
                    <mxGeometry relative="1" as="geometry">
                        <mxPoint x="230.05999999999995" y="49.68000000000001" as="targetPoint"/>
                        <mxPoint x="120.05999999999995" y="49.68000000000001" as="sourcePoint"/>
                    </mxGeometry>
                </mxCell>
                <mxCell id="102" value="acc control" style="edgeLabel;html=1;align=center;verticalAlign=middle;resizable=0;points=[];" parent="101" vertex="1" connectable="0">
                    <mxGeometry x="-0.1999" relative="1" as="geometry">
                        <mxPoint x="6" as="offset"/>
                    </mxGeometry>
                </mxCell>
                <mxCell id="103" style="edgeStyle=none;html=1;exitX=1;exitY=0.25;exitDx=0;exitDy=0;dashed=1;dashPattern=1 1;strokeWidth=1;" parent="109" edge="1">
                    <mxGeometry relative="1" as="geometry">
                        <mxPoint x="230.05999999999995" y="30.00258064516123" as="targetPoint"/>
                        <mxPoint x="120.05999999999995" y="29.680000000000007" as="sourcePoint"/>
                    </mxGeometry>
                </mxCell>
                <mxCell id="104" value="vel control" style="edgeLabel;html=1;align=center;verticalAlign=middle;resizable=0;points=[];" parent="103" vertex="1" connectable="0">
                    <mxGeometry x="-0.2209" y="-1" relative="1" as="geometry">
                        <mxPoint x="7" as="offset"/>
                    </mxGeometry>
                </mxCell>
                <mxCell id="105" style="edgeStyle=none;html=1;exitX=1;exitY=0.75;exitDx=0;exitDy=0;dashed=1;dashPattern=1 1;strokeWidth=1;" parent="109" edge="1">
                    <mxGeometry relative="1" as="geometry">
                        <mxPoint x="230.05999999999995" y="70.00258064516123" as="targetPoint"/>
                        <mxPoint x="120.05999999999995" y="69.68" as="sourcePoint"/>
                    </mxGeometry>
                </mxCell>
                <mxCell id="106" value="att control" style="edgeLabel;html=1;align=center;verticalAlign=middle;resizable=0;points=[];" parent="105" vertex="1" connectable="0">
                    <mxGeometry x="-0.3383" relative="1" as="geometry">
                        <mxPoint x="14" as="offset"/>
                    </mxGeometry>
                </mxCell>
                <mxCell id="107" style="edgeStyle=none;html=1;exitX=1;exitY=0;exitDx=0;exitDy=0;dashed=1;dashPattern=1 1;strokeWidth=1;" parent="109" edge="1">
                    <mxGeometry relative="1" as="geometry">
                        <mxPoint x="230.05999999999995" y="10.002580645161231" as="targetPoint"/>
                        <mxPoint x="120.05999999999995" y="9.680000000000007" as="sourcePoint"/>
                    </mxGeometry>
                </mxCell>
                <mxCell id="108" value="pos control" style="edgeLabel;html=1;align=center;verticalAlign=middle;resizable=0;points=[];" parent="107" vertex="1" connectable="0">
                    <mxGeometry x="-0.3148" relative="1" as="geometry">
                        <mxPoint x="13" as="offset"/>
                    </mxGeometry>
                </mxCell>
                <mxCell id="113" style="edgeStyle=none;html=1;exitX=1;exitY=0.5;exitDx=0;exitDy=0;dashed=1;dashPattern=1 1;strokeWidth=1;entryX=0;entryY=0.5;entryDx=0;entryDy=0;" parent="115" target="110" edge="1">
                    <mxGeometry relative="1" as="geometry">
                        <mxPoint x="99.99999999999994" y="40" as="targetPoint"/>
                        <mxPoint y="39.55000000000001" as="sourcePoint"/>
                    </mxGeometry>
                </mxCell>
                <mxCell id="114" value="mav command" style="edgeLabel;html=1;align=center;verticalAlign=middle;resizable=0;points=[];" parent="113" vertex="1" connectable="0">
                    <mxGeometry x="-0.1389" y="1" relative="1" as="geometry">
                        <mxPoint y="1" as="offset"/>
                    </mxGeometry>
                </mxCell>
                <mxCell id="118" value="" style="group" parent="1" vertex="1" connectable="0">
                    <mxGeometry x="480" y="250" width="340.05999999999995" height="200" as="geometry"/>
                </mxCell>
                <mxCell id="84" value="" style="group" parent="118" vertex="1" connectable="0">
                    <mxGeometry x="110.06" width="229.99999999999994" height="200" as="geometry"/>
                </mxCell>
                <mxCell id="x8476iQVBlh_GbGHP3KB-16" value="Mavlink Data Hub" style="rounded=0;whiteSpace=wrap;html=1;" parent="84" vertex="1">
                    <mxGeometry width="120" height="200" as="geometry"/>
                </mxCell>
                <mxCell id="x8476iQVBlh_GbGHP3KB-66" style="edgeStyle=orthogonalEdgeStyle;rounded=0;orthogonalLoop=1;jettySize=auto;html=1;" parent="84" edge="1">
                    <mxGeometry relative="1" as="geometry">
                        <mxPoint x="229.99999999999994" y="10" as="targetPoint"/>
                        <mxPoint x="120" y="10" as="sourcePoint"/>
                        <Array as="points">
                            <mxPoint x="229.99999999999994" y="10"/>
                        </Array>
                    </mxGeometry>
                </mxCell>
                <mxCell id="x8476iQVBlh_GbGHP3KB-67" value="gps loc" style="edgeLabel;html=1;align=center;verticalAlign=middle;resizable=0;points=[];" parent="x8476iQVBlh_GbGHP3KB-66" vertex="1" connectable="0">
                    <mxGeometry x="-0.0238" y="-2" relative="1" as="geometry">
                        <mxPoint y="-2" as="offset"/>
                    </mxGeometry>
                </mxCell>
                <mxCell id="x8476iQVBlh_GbGHP3KB-68" style="edgeStyle=orthogonalEdgeStyle;rounded=0;orthogonalLoop=1;jettySize=auto;html=1;" parent="84" edge="1">
                    <mxGeometry relative="1" as="geometry">
                        <mxPoint x="229.99999999999994" y="30" as="targetPoint"/>
                        <mxPoint x="120" y="30" as="sourcePoint"/>
                        <Array as="points">
                            <mxPoint x="229.99999999999994" y="30"/>
                        </Array>
                    </mxGeometry>
                </mxCell>
                <mxCell id="x8476iQVBlh_GbGHP3KB-69" value="heading" style="edgeLabel;html=1;align=center;verticalAlign=middle;resizable=0;points=[];" parent="x8476iQVBlh_GbGHP3KB-68" vertex="1" connectable="0">
                    <mxGeometry x="-0.0238" y="-2" relative="1" as="geometry">
                        <mxPoint y="-2" as="offset"/>
                    </mxGeometry>
                </mxCell>
                <mxCell id="x8476iQVBlh_GbGHP3KB-70" style="edgeStyle=orthogonalEdgeStyle;rounded=0;orthogonalLoop=1;jettySize=auto;html=1;" parent="84" edge="1">
                    <mxGeometry relative="1" as="geometry">
                        <mxPoint x="229.99999999999994" y="50" as="targetPoint"/>
                        <mxPoint x="120" y="50" as="sourcePoint"/>
                        <Array as="points">
                            <mxPoint x="229.99999999999994" y="50"/>
                        </Array>
                    </mxGeometry>
                </mxCell>
                <mxCell id="x8476iQVBlh_GbGHP3KB-71" value="height" style="edgeLabel;html=1;align=center;verticalAlign=middle;resizable=0;points=[];" parent="x8476iQVBlh_GbGHP3KB-70" vertex="1" connectable="0">
                    <mxGeometry x="-0.0238" y="-2" relative="1" as="geometry">
                        <mxPoint y="-2" as="offset"/>
                    </mxGeometry>
                </mxCell>
                <mxCell id="x8476iQVBlh_GbGHP3KB-72" style="edgeStyle=orthogonalEdgeStyle;rounded=0;orthogonalLoop=1;jettySize=auto;html=1;" parent="84" edge="1">
                    <mxGeometry relative="1" as="geometry">
                        <mxPoint x="229.99999999999994" y="70" as="targetPoint"/>
                        <mxPoint x="120" y="70" as="sourcePoint"/>
                        <Array as="points">
                            <mxPoint x="229.99999999999994" y="70"/>
                        </Array>
                    </mxGeometry>
                </mxCell>
                <mxCell id="x8476iQVBlh_GbGHP3KB-73" value="accel (x,y,z)" style="edgeLabel;html=1;align=center;verticalAlign=middle;resizable=0;points=[];" parent="x8476iQVBlh_GbGHP3KB-72" vertex="1" connectable="0">
                    <mxGeometry x="-0.0238" y="-2" relative="1" as="geometry">
                        <mxPoint y="-2" as="offset"/>
                    </mxGeometry>
                </mxCell>
                <mxCell id="x8476iQVBlh_GbGHP3KB-74" style="edgeStyle=orthogonalEdgeStyle;rounded=0;orthogonalLoop=1;jettySize=auto;html=1;" parent="84" edge="1">
                    <mxGeometry relative="1" as="geometry">
                        <mxPoint x="229.99999999999994" y="90" as="targetPoint"/>
                        <mxPoint x="120" y="90" as="sourcePoint"/>
                        <Array as="points">
                            <mxPoint x="229.99999999999994" y="90"/>
                        </Array>
                    </mxGeometry>
                </mxCell>
                <mxCell id="x8476iQVBlh_GbGHP3KB-75" value="flow x" style="edgeLabel;html=1;align=center;verticalAlign=middle;resizable=0;points=[];" parent="x8476iQVBlh_GbGHP3KB-74" vertex="1" connectable="0">
                    <mxGeometry x="-0.0238" y="-2" relative="1" as="geometry">
                        <mxPoint y="-2" as="offset"/>
                    </mxGeometry>
                </mxCell>
                <mxCell id="x8476iQVBlh_GbGHP3KB-76" style="edgeStyle=orthogonalEdgeStyle;rounded=0;orthogonalLoop=1;jettySize=auto;html=1;" parent="84" edge="1">
                    <mxGeometry relative="1" as="geometry">
                        <mxPoint x="229.99999999999994" y="110" as="targetPoint"/>
                        <mxPoint x="120" y="110" as="sourcePoint"/>
                        <Array as="points">
                            <mxPoint x="229.99999999999994" y="110"/>
                        </Array>
                    </mxGeometry>
                </mxCell>
                <mxCell id="x8476iQVBlh_GbGHP3KB-77" value="flow y" style="edgeLabel;html=1;align=center;verticalAlign=middle;resizable=0;points=[];" parent="x8476iQVBlh_GbGHP3KB-76" vertex="1" connectable="0">
                    <mxGeometry x="-0.0238" y="-2" relative="1" as="geometry">
                        <mxPoint y="-2" as="offset"/>
                    </mxGeometry>
                </mxCell>
                <mxCell id="x8476iQVBlh_GbGHP3KB-91" style="edgeStyle=orthogonalEdgeStyle;rounded=0;orthogonalLoop=1;jettySize=auto;html=1;" parent="84" edge="1">
                    <mxGeometry relative="1" as="geometry">
                        <mxPoint x="229.99999999999994" y="129.16999999999996" as="targetPoint"/>
                        <mxPoint x="120" y="129.16999999999996" as="sourcePoint"/>
                        <Array as="points">
                            <mxPoint x="229.99999999999994" y="129.16999999999996"/>
                        </Array>
                    </mxGeometry>
                </mxCell>
                <mxCell id="x8476iQVBlh_GbGHP3KB-92" value="mav cmd resp" style="edgeLabel;html=1;align=center;verticalAlign=middle;resizable=0;points=[];" parent="x8476iQVBlh_GbGHP3KB-91" vertex="1" connectable="0">
                    <mxGeometry x="-0.0238" y="-2" relative="1" as="geometry">
                        <mxPoint y="-1" as="offset"/>
                    </mxGeometry>
                </mxCell>
                <mxCell id="x8476iQVBlh_GbGHP3KB-93" style="edgeStyle=orthogonalEdgeStyle;rounded=0;orthogonalLoop=1;jettySize=auto;html=1;" parent="84" edge="1">
                    <mxGeometry relative="1" as="geometry">
                        <mxPoint x="229.99999999999994" y="149.16999999999996" as="targetPoint"/>
                        <mxPoint x="120" y="149.16999999999996" as="sourcePoint"/>
                        <Array as="points">
                            <mxPoint x="229.99999999999994" y="149.16999999999996"/>
                        </Array>
                    </mxGeometry>
                </mxCell>
                <mxCell id="x8476iQVBlh_GbGHP3KB-94" value="batt (I,V,SOC)" style="edgeLabel;html=1;align=center;verticalAlign=middle;resizable=0;points=[];" parent="x8476iQVBlh_GbGHP3KB-93" vertex="1" connectable="0">
                    <mxGeometry x="-0.0238" y="-2" relative="1" as="geometry">
                        <mxPoint y="-1" as="offset"/>
                    </mxGeometry>
                </mxCell>
                <mxCell id="x8476iQVBlh_GbGHP3KB-95" style="edgeStyle=orthogonalEdgeStyle;rounded=0;orthogonalLoop=1;jettySize=auto;html=1;" parent="84" edge="1">
                    <mxGeometry relative="1" as="geometry">
                        <mxPoint x="229.99999999999994" y="169.16999999999996" as="targetPoint"/>
                        <mxPoint x="120" y="169.16999999999996" as="sourcePoint"/>
                        <Array as="points">
                            <mxPoint x="229.99999999999994" y="169.16999999999996"/>
                        </Array>
                    </mxGeometry>
                </mxCell>
                <mxCell id="x8476iQVBlh_GbGHP3KB-96" value="height" style="edgeLabel;html=1;align=center;verticalAlign=middle;resizable=0;points=[];" parent="x8476iQVBlh_GbGHP3KB-95" vertex="1" connectable="0">
                    <mxGeometry x="-0.0238" y="-2" relative="1" as="geometry">
                        <mxPoint y="-1" as="offset"/>
                    </mxGeometry>
                </mxCell>
                <mxCell id="x8476iQVBlh_GbGHP3KB-97" style="edgeStyle=orthogonalEdgeStyle;rounded=0;orthogonalLoop=1;jettySize=auto;html=1;" parent="84" edge="1">
                    <mxGeometry relative="1" as="geometry">
                        <mxPoint x="229.99999999999994" y="189.16999999999996" as="targetPoint"/>
                        <mxPoint x="120" y="189.16999999999996" as="sourcePoint"/>
                        <Array as="points">
                            <mxPoint x="229.99999999999994" y="189.16999999999996"/>
                        </Array>
                    </mxGeometry>
                </mxCell>
                <mxCell id="x8476iQVBlh_GbGHP3KB-98" value="mav veh state" style="edgeLabel;html=1;align=center;verticalAlign=middle;resizable=0;points=[];" parent="x8476iQVBlh_GbGHP3KB-97" vertex="1" connectable="0">
                    <mxGeometry x="-0.0238" y="-2" relative="1" as="geometry">
                        <mxPoint y="-1" as="offset"/>
                    </mxGeometry>
                </mxCell>
                <mxCell id="116" style="edgeStyle=none;html=1;exitX=1;exitY=0.5;exitDx=0;exitDy=0;dashed=1;dashPattern=1 1;strokeWidth=1;entryX=0;entryY=0.5;entryDx=0;entryDy=0;" parent="118" edge="1">
                    <mxGeometry relative="1" as="geometry">
                        <mxPoint x="110" y="30.44999999999999" as="targetPoint"/>
                        <mxPoint y="29.999999999999943" as="sourcePoint"/>
                    </mxGeometry>
                </mxCell>
                <mxCell id="117" value="mav command" style="edgeLabel;html=1;align=center;verticalAlign=middle;resizable=0;points=[];" parent="116" vertex="1" connectable="0">
                    <mxGeometry x="-0.1389" y="1" relative="1" as="geometry">
                        <mxPoint y="1" as="offset"/>
                    </mxGeometry>
                </mxCell>
                <mxCell id="123" value="" style="group" parent="1" vertex="1" connectable="0">
                    <mxGeometry x="910.06" y="390" width="299.94000000000005" height="60" as="geometry"/>
                </mxCell>
                <mxCell id="79" value="" style="group" parent="123" vertex="1" connectable="0">
                    <mxGeometry x="109.94000000000005" width="190" height="60" as="geometry"/>
                </mxCell>
                <mxCell id="44" value="Localize Target" style="rounded=0;whiteSpace=wrap;html=1;container=0;" parent="79" vertex="1">
                    <mxGeometry width="120" height="60" as="geometry"/>
                </mxCell>
                <mxCell id="46" style="edgeStyle=orthogonalEdgeStyle;rounded=0;orthogonalLoop=1;jettySize=auto;html=1;" parent="79" edge="1">
                    <mxGeometry relative="1" as="geometry">
                        <mxPoint x="230" y="9.999999999999886" as="targetPoint"/>
                        <mxPoint x="120" y="9.999999999999886" as="sourcePoint"/>
                        <Array as="points">
                            <mxPoint x="190" y="9.999999999999886"/>
                        </Array>
                    </mxGeometry>
                </mxCell>
                <mxCell id="47" value="target x" style="edgeLabel;html=1;align=center;verticalAlign=middle;resizable=0;points=[];container=0;" parent="46" vertex="1" connectable="0">
                    <mxGeometry x="-0.1212" y="-3" relative="1" as="geometry">
                        <mxPoint x="2" y="-3" as="offset"/>
                    </mxGeometry>
                </mxCell>
                <mxCell id="48" style="edgeStyle=orthogonalEdgeStyle;rounded=0;orthogonalLoop=1;jettySize=auto;html=1;" parent="79" edge="1">
                    <mxGeometry relative="1" as="geometry">
                        <mxPoint x="230" y="29.709999999999866" as="targetPoint"/>
                        <mxPoint x="120" y="29.709999999999866" as="sourcePoint"/>
                        <Array as="points">
                            <mxPoint x="190" y="29.709999999999866"/>
                        </Array>
                    </mxGeometry>
                </mxCell>
                <mxCell id="49" value="target y" style="edgeLabel;html=1;align=center;verticalAlign=middle;resizable=0;points=[];container=0;" parent="48" vertex="1" connectable="0">
                    <mxGeometry x="-0.1212" y="-3" relative="1" as="geometry">
                        <mxPoint x="2" y="-3" as="offset"/>
                    </mxGeometry>
                </mxCell>
                <mxCell id="50" style="edgeStyle=orthogonalEdgeStyle;rounded=0;orthogonalLoop=1;jettySize=auto;html=1;" parent="79" edge="1">
                    <mxGeometry relative="1" as="geometry">
                        <mxPoint x="230" y="49.709999999999866" as="targetPoint"/>
                        <mxPoint x="120" y="49.709999999999866" as="sourcePoint"/>
                        <Array as="points">
                            <mxPoint x="190" y="49.709999999999866"/>
                        </Array>
                    </mxGeometry>
                </mxCell>
                <mxCell id="51" value="target z" style="edgeLabel;html=1;align=center;verticalAlign=middle;resizable=0;points=[];container=0;" parent="50" vertex="1" connectable="0">
                    <mxGeometry x="-0.1212" y="-3" relative="1" as="geometry">
                        <mxPoint x="2" y="-3" as="offset"/>
                    </mxGeometry>
                </mxCell>
                <mxCell id="119" style="edgeStyle=orthogonalEdgeStyle;rounded=0;orthogonalLoop=1;jettySize=auto;html=1;" parent="123" edge="1">
                    <mxGeometry relative="1" as="geometry">
                        <mxPoint x="109.94000000000005" y="20.230000000000018" as="targetPoint"/>
                        <mxPoint x="-20.059999999999945" y="20" as="sourcePoint"/>
                        <Array as="points">
                            <mxPoint y="20"/>
                            <mxPoint y="20"/>
                        </Array>
                    </mxGeometry>
                </mxCell>
                <mxCell id="120" value="target bounding box" style="edgeLabel;html=1;align=center;verticalAlign=middle;resizable=0;points=[];container=0;" parent="119" vertex="1" connectable="0">
                    <mxGeometry x="-0.1212" y="-3" relative="1" as="geometry">
                        <mxPoint x="2" y="-3" as="offset"/>
                    </mxGeometry>
                </mxCell>
                <mxCell id="121" style="edgeStyle=orthogonalEdgeStyle;rounded=0;orthogonalLoop=1;jettySize=auto;html=1;" parent="123" edge="1">
                    <mxGeometry relative="1" as="geometry">
                        <mxPoint x="109.94000000000005" y="39.23000000000002" as="targetPoint"/>
                        <mxPoint x="-20.059999999999945" y="39.710000000000036" as="sourcePoint"/>
                        <Array as="points">
                            <mxPoint x="49.940000000000055" y="39.70999999999992"/>
                        </Array>
                    </mxGeometry>
                </mxCell>
                <mxCell id="122" value="bounding box loc" style="edgeLabel;html=1;align=center;verticalAlign=middle;resizable=0;points=[];container=0;" parent="121" vertex="1" connectable="0">
                    <mxGeometry x="-0.1212" y="-3" relative="1" as="geometry">
                        <mxPoint x="2" y="-3" as="offset"/>
                    </mxGeometry>
                </mxCell>
                <mxCell id="136" value="" style="group" parent="1" vertex="1" connectable="0">
                    <mxGeometry x="979.94" y="500" width="230" height="60" as="geometry"/>
                </mxCell>
                <mxCell id="80" value="" style="group" parent="136" vertex="1" connectable="0">
                    <mxGeometry x="40" width="190" height="60" as="geometry"/>
                </mxCell>
                <mxCell id="x8476iQVBlh_GbGHP3KB-13" value="Follow Target" style="rounded=0;whiteSpace=wrap;html=1;container=0;" parent="80" vertex="1">
                    <mxGeometry width="120" height="60" as="geometry"/>
                </mxCell>
                <mxCell id="x8476iQVBlh_GbGHP3KB-245" style="edgeStyle=orthogonalEdgeStyle;rounded=0;orthogonalLoop=1;jettySize=auto;html=1;" parent="80" edge="1">
                    <mxGeometry relative="1" as="geometry">
                        <mxPoint x="230" y="9.999999999999886" as="targetPoint"/>
                        <mxPoint x="120" y="9.999999999999886" as="sourcePoint"/>
                        <Array as="points">
                            <mxPoint x="190" y="9.999999999999886"/>
                        </Array>
                    </mxGeometry>
                </mxCell>
                <mxCell id="x8476iQVBlh_GbGHP3KB-246" value="x control" style="edgeLabel;html=1;align=center;verticalAlign=middle;resizable=0;points=[];container=0;" parent="x8476iQVBlh_GbGHP3KB-245" vertex="1" connectable="0">
                    <mxGeometry x="-0.1212" y="-3" relative="1" as="geometry">
                        <mxPoint x="2" y="-3" as="offset"/>
                    </mxGeometry>
                </mxCell>
                <mxCell id="x8476iQVBlh_GbGHP3KB-248" style="edgeStyle=orthogonalEdgeStyle;rounded=0;orthogonalLoop=1;jettySize=auto;html=1;" parent="80" edge="1">
                    <mxGeometry relative="1" as="geometry">
                        <mxPoint x="230" y="29.70999999999981" as="targetPoint"/>
                        <mxPoint x="120" y="29.70999999999981" as="sourcePoint"/>
                        <Array as="points">
                            <mxPoint x="190" y="29.70999999999981"/>
                        </Array>
                    </mxGeometry>
                </mxCell>
                <mxCell id="x8476iQVBlh_GbGHP3KB-249" value="y control" style="edgeLabel;html=1;align=center;verticalAlign=middle;resizable=0;points=[];container=0;" parent="x8476iQVBlh_GbGHP3KB-248" vertex="1" connectable="0">
                    <mxGeometry x="-0.1212" y="-3" relative="1" as="geometry">
                        <mxPoint x="2" y="-3" as="offset"/>
                    </mxGeometry>
                </mxCell>
                <mxCell id="x8476iQVBlh_GbGHP3KB-250" style="edgeStyle=orthogonalEdgeStyle;rounded=0;orthogonalLoop=1;jettySize=auto;html=1;" parent="80" edge="1">
                    <mxGeometry relative="1" as="geometry">
                        <mxPoint x="230" y="49.70999999999981" as="targetPoint"/>
                        <mxPoint x="120" y="49.70999999999981" as="sourcePoint"/>
                        <Array as="points">
                            <mxPoint x="190" y="49.70999999999981"/>
                        </Array>
                    </mxGeometry>
                </mxCell>
                <mxCell id="x8476iQVBlh_GbGHP3KB-251" value="z control" style="edgeLabel;html=1;align=center;verticalAlign=middle;resizable=0;points=[];container=0;" parent="x8476iQVBlh_GbGHP3KB-250" vertex="1" connectable="0">
                    <mxGeometry x="-0.1212" y="-3" relative="1" as="geometry">
                        <mxPoint x="2" y="-3" as="offset"/>
                    </mxGeometry>
                </mxCell>
                <mxCell id="130" style="edgeStyle=orthogonalEdgeStyle;rounded=0;orthogonalLoop=1;jettySize=auto;html=1;" parent="136" edge="1">
                    <mxGeometry relative="1" as="geometry">
                        <mxPoint x="40" y="9.769999999999982" as="targetPoint"/>
                        <mxPoint x="-70" y="9.769999999999982" as="sourcePoint"/>
                        <Array as="points">
                            <mxPoint y="9.769999999999868"/>
                        </Array>
                    </mxGeometry>
                </mxCell>
                <mxCell id="131" value="target x" style="edgeLabel;html=1;align=center;verticalAlign=middle;resizable=0;points=[];container=0;" parent="130" vertex="1" connectable="0">
                    <mxGeometry x="-0.1212" y="-3" relative="1" as="geometry">
                        <mxPoint x="2" y="-3" as="offset"/>
                    </mxGeometry>
                </mxCell>
                <mxCell id="132" style="edgeStyle=orthogonalEdgeStyle;rounded=0;orthogonalLoop=1;jettySize=auto;html=1;" parent="136" edge="1">
                    <mxGeometry relative="1" as="geometry">
                        <mxPoint x="40" y="29.47999999999979" as="targetPoint"/>
                        <mxPoint x="-70" y="29.47999999999979" as="sourcePoint"/>
                        <Array as="points">
                            <mxPoint y="29.479999999999905"/>
                        </Array>
                    </mxGeometry>
                </mxCell>
                <mxCell id="133" value="target y" style="edgeLabel;html=1;align=center;verticalAlign=middle;resizable=0;points=[];container=0;" parent="132" vertex="1" connectable="0">
                    <mxGeometry x="-0.1212" y="-3" relative="1" as="geometry">
                        <mxPoint x="2" y="-3" as="offset"/>
                    </mxGeometry>
                </mxCell>
                <mxCell id="134" style="edgeStyle=orthogonalEdgeStyle;rounded=0;orthogonalLoop=1;jettySize=auto;html=1;" parent="136" edge="1">
                    <mxGeometry relative="1" as="geometry">
                        <mxPoint x="40" y="49.47999999999979" as="targetPoint"/>
                        <mxPoint x="-70" y="49.47999999999979" as="sourcePoint"/>
                        <Array as="points">
                            <mxPoint y="49.479999999999905"/>
                        </Array>
                    </mxGeometry>
                </mxCell>
                <mxCell id="135" value="target z" style="edgeLabel;html=1;align=center;verticalAlign=middle;resizable=0;points=[];container=0;" parent="134" vertex="1" connectable="0">
                    <mxGeometry x="-0.1212" y="-3" relative="1" as="geometry">
                        <mxPoint x="2" y="-3" as="offset"/>
                    </mxGeometry>
                </mxCell>
                <mxCell id="170" value="" style="group" parent="1" vertex="1" connectable="0">
                    <mxGeometry x="940" y="671.26" width="130" height="168.74" as="geometry"/>
                </mxCell>
                <mxCell id="168" value="" style="rounded=0;whiteSpace=wrap;html=1;dashed=1;dashPattern=1 1;fillStyle=solid;fillColor=#6d8764;fontColor=#ffffff;strokeColor=#3A5431;" parent="170" vertex="1">
                    <mxGeometry y="18.74000000000001" width="130" height="150" as="geometry"/>
                </mxCell>
                <mxCell id="x8476iQVBlh_GbGHP3KB-218" value="" style="endArrow=none;dashed=1;html=1;rounded=0;dashPattern=1 1;movable=1;resizable=1;rotatable=1;deletable=1;editable=1;connectable=1;" parent="170" edge="1">
                    <mxGeometry width="50" height="50" relative="1" as="geometry">
                        <mxPoint x="10" y="137.62" as="sourcePoint"/>
                        <mxPoint x="120" y="137.90999999999997" as="targetPoint"/>
                    </mxGeometry>
                </mxCell>
                <mxCell id="x8476iQVBlh_GbGHP3KB-219" value="Function" style="edgeLabel;html=1;align=center;verticalAlign=middle;resizable=1;points=[];movable=1;rotatable=1;deletable=1;editable=1;connectable=1;container=0;" parent="x8476iQVBlh_GbGHP3KB-218" vertex="1" connectable="0">
                    <mxGeometry x="0.4" relative="1" as="geometry">
                        <mxPoint x="-20" as="offset"/>
                    </mxGeometry>
                </mxCell>
                <mxCell id="x8476iQVBlh_GbGHP3KB-223" value="" style="endArrow=none;html=1;rounded=0;movable=1;resizable=1;rotatable=1;deletable=1;editable=1;connectable=1;" parent="170" edge="1">
                    <mxGeometry width="50" height="50" relative="1" as="geometry">
                        <mxPoint x="10" y="157.90999999999997" as="sourcePoint"/>
                        <mxPoint x="120" y="157.90999999999997" as="targetPoint"/>
                    </mxGeometry>
                </mxCell>
                <mxCell id="x8476iQVBlh_GbGHP3KB-224" value="Signal" style="edgeLabel;html=1;align=center;verticalAlign=middle;resizable=1;points=[];movable=1;rotatable=1;deletable=1;editable=1;connectable=1;container=0;" parent="x8476iQVBlh_GbGHP3KB-223" vertex="1" connectable="0">
                    <mxGeometry x="0.0519" relative="1" as="geometry">
                        <mxPoint as="offset"/>
                    </mxGeometry>
                </mxCell>
                <mxCell id="163" value="" style="endArrow=none;dashed=1;html=1;rounded=0;movable=1;resizable=1;rotatable=1;deletable=1;editable=1;connectable=1;shape=flexArrow;" parent="170" edge="1">
                    <mxGeometry width="50" height="50" relative="1" as="geometry">
                        <mxPoint x="10" y="118.74000000000012" as="sourcePoint"/>
                        <mxPoint x="120" y="119.03000000000009" as="targetPoint"/>
                        <Array as="points">
                            <mxPoint x="70" y="118.74000000000001"/>
                        </Array>
                    </mxGeometry>
                </mxCell>
                <mxCell id="164" value="Result" style="edgeLabel;html=1;align=center;verticalAlign=middle;resizable=1;points=[];movable=1;rotatable=1;deletable=1;editable=1;connectable=1;container=0;" parent="163" vertex="1" connectable="0">
                    <mxGeometry x="0.4" relative="1" as="geometry">
                        <mxPoint x="-20" as="offset"/>
                    </mxGeometry>
                </mxCell>
                <mxCell id="x8476iQVBlh_GbGHP3KB-225" value="Provides signals" style="rounded=0;whiteSpace=wrap;html=1;movable=1;resizable=1;rotatable=1;deletable=1;editable=1;connectable=1;container=0;" parent="170" vertex="1">
                    <mxGeometry x="10" y="28.74000000000001" width="110" height="30" as="geometry"/>
                </mxCell>
                <mxCell id="x8476iQVBlh_GbGHP3KB-226" value="Provides functions" style="rounded=0;whiteSpace=wrap;html=1;dashed=1;dashPattern=1 1;movable=1;resizable=1;rotatable=1;deletable=1;editable=1;connectable=1;container=0;" parent="170" vertex="1">
                    <mxGeometry x="10" y="68.74000000000001" width="110" height="30" as="geometry"/>
                </mxCell>
                <mxCell id="169" value="Legend" style="text;html=1;align=center;verticalAlign=middle;resizable=1;points=[];autosize=1;movable=1;rotatable=1;deletable=1;editable=1;connectable=1;container=0;fillColor=#a20025;strokeColor=#6F0000;fontColor=#ffffff;" parent="170" vertex="1">
                    <mxGeometry width="130" height="18.74" as="geometry"/>
                </mxCell>
                <mxCell id="172" value="" style="group" parent="1" vertex="1" connectable="0">
                    <mxGeometry x="1309.9999999999998" y="390" width="350.0000000000002" height="115" as="geometry"/>
                </mxCell>
                <mxCell id="159" style="edgeStyle=none;html=1;exitX=1;exitY=0.5;exitDx=0;exitDy=0;dashed=1;strokeWidth=1;shape=flexArrow;startSize=6;" parent="172" source="x8476iQVBlh_GbGHP3KB-23" edge="1">
                    <mxGeometry relative="1" as="geometry">
                        <mxPoint x="350.0000000000002" y="58" as="targetPoint"/>
                    </mxGeometry>
                </mxCell>
                <mxCell id="160" value="velocity setpoint" style="edgeLabel;html=1;align=center;verticalAlign=middle;resizable=0;points=[];" parent="159" vertex="1" connectable="0">
                    <mxGeometry x="-0.4952" relative="1" as="geometry">
                        <mxPoint x="20" y="-13" as="offset"/>
                    </mxGeometry>
                </mxCell>
                <mxCell id="x8476iQVBlh_GbGHP3KB-23" value="Vehicle Controller" style="rounded=0;whiteSpace=wrap;html=1;" parent="172" vertex="1">
                    <mxGeometry x="110.00000000000023" width="120" height="115" as="geometry"/>
                </mxCell>
                <mxCell id="147" style="edgeStyle=none;html=1;exitX=1;exitY=0.5;exitDx=0;exitDy=0;strokeWidth=1;" parent="172" edge="1">
                    <mxGeometry relative="1" as="geometry">
                        <mxPoint x="110.00000000000023" y="4.983636363636151" as="targetPoint"/>
                        <mxPoint x="2.2737367544323206e-13" y="4.6200000000000045" as="sourcePoint"/>
                    </mxGeometry>
                </mxCell>
                <mxCell id="148" value="system state" style="edgeLabel;html=1;align=center;verticalAlign=middle;resizable=0;points=[];" parent="147" vertex="1" connectable="0">
                    <mxGeometry x="-0.1468" y="2" relative="1" as="geometry">
                        <mxPoint x="3" y="2" as="offset"/>
                    </mxGeometry>
                </mxCell>
                <mxCell id="149" style="edgeStyle=none;html=1;exitX=1;exitY=0.25;exitDx=0;exitDy=0;dashed=1;dashPattern=1 1;strokeWidth=1;" parent="172" edge="1">
                    <mxGeometry relative="1" as="geometry">
                        <mxPoint x="110" y="25.32258064516128" as="targetPoint"/>
                        <mxPoint y="25.000000000000057" as="sourcePoint"/>
                    </mxGeometry>
                </mxCell>
                <mxCell id="150" value="vel control" style="edgeLabel;html=1;align=center;verticalAlign=middle;resizable=0;points=[];" parent="149" vertex="1" connectable="0">
                    <mxGeometry x="-0.2209" y="-1" relative="1" as="geometry">
                        <mxPoint x="7" as="offset"/>
                    </mxGeometry>
                </mxCell>
                <mxCell id="151" style="edgeStyle=none;html=1;exitX=1;exitY=0.5;exitDx=0;exitDy=0;dashed=1;dashPattern=1 1;strokeWidth=1;" parent="172" edge="1">
                    <mxGeometry relative="1" as="geometry">
                        <mxPoint x="110.00000000000023" y="45" as="targetPoint"/>
                        <mxPoint x="2.2737367544323206e-13" y="45" as="sourcePoint"/>
                    </mxGeometry>
                </mxCell>
                <mxCell id="152" value="mav command" style="edgeLabel;html=1;align=center;verticalAlign=middle;resizable=0;points=[];" parent="151" vertex="1" connectable="0">
                    <mxGeometry x="-0.1389" y="1" relative="1" as="geometry">
                        <mxPoint y="1" as="offset"/>
                    </mxGeometry>
                </mxCell>
                <mxCell id="153" style="edgeStyle=orthogonalEdgeStyle;rounded=0;orthogonalLoop=1;jettySize=auto;html=1;" parent="172" edge="1">
                    <mxGeometry relative="1" as="geometry">
                        <mxPoint x="110.00000000000023" y="65" as="targetPoint"/>
                        <mxPoint x="6.821210263296962e-13" y="65" as="sourcePoint"/>
                        <Array as="points">
                            <mxPoint x="70.00000000000023" y="64.99999999999989"/>
                        </Array>
                    </mxGeometry>
                </mxCell>
                <mxCell id="154" value="x control" style="edgeLabel;html=1;align=center;verticalAlign=middle;resizable=0;points=[];container=0;" parent="153" vertex="1" connectable="0">
                    <mxGeometry x="-0.1212" y="-3" relative="1" as="geometry">
                        <mxPoint x="2" y="-3" as="offset"/>
                    </mxGeometry>
                </mxCell>
                <mxCell id="155" style="edgeStyle=orthogonalEdgeStyle;rounded=0;orthogonalLoop=1;jettySize=auto;html=1;" parent="172" edge="1">
                    <mxGeometry relative="1" as="geometry">
                        <mxPoint x="110.00000000000023" y="84.70999999999981" as="targetPoint"/>
                        <mxPoint x="6.821210263296962e-13" y="84.70999999999981" as="sourcePoint"/>
                        <Array as="points">
                            <mxPoint x="70.00000000000023" y="84.70999999999981"/>
                        </Array>
                    </mxGeometry>
                </mxCell>
                <mxCell id="156" value="y control" style="edgeLabel;html=1;align=center;verticalAlign=middle;resizable=0;points=[];container=0;" parent="155" vertex="1" connectable="0">
                    <mxGeometry x="-0.1212" y="-3" relative="1" as="geometry">
                        <mxPoint x="2" y="-3" as="offset"/>
                    </mxGeometry>
                </mxCell>
                <mxCell id="157" style="edgeStyle=orthogonalEdgeStyle;rounded=0;orthogonalLoop=1;jettySize=auto;html=1;" parent="172" edge="1">
                    <mxGeometry relative="1" as="geometry">
                        <mxPoint x="110.00000000000023" y="104.70999999999981" as="targetPoint"/>
                        <mxPoint x="6.821210263296962e-13" y="104.70999999999981" as="sourcePoint"/>
                        <Array as="points">
                            <mxPoint x="70.00000000000023" y="104.70999999999981"/>
                        </Array>
                    </mxGeometry>
                </mxCell>
                <mxCell id="158" value="z control" style="edgeLabel;html=1;align=center;verticalAlign=middle;resizable=0;points=[];container=0;" parent="157" vertex="1" connectable="0">
                    <mxGeometry x="-0.1212" y="-3" relative="1" as="geometry">
                        <mxPoint x="2" y="-3" as="offset"/>
                    </mxGeometry>
                </mxCell>
                <mxCell id="179" value="" style="group" parent="1" vertex="1" connectable="0">
                    <mxGeometry x="980.06" y="155" width="230" height="70" as="geometry"/>
                </mxCell>
                <mxCell id="82" value="" style="group" parent="179" vertex="1" connectable="0">
                    <mxGeometry x="40" width="190" height="70" as="geometry"/>
                </mxCell>
                <mxCell id="24" value="Object Detection" style="rounded=0;whiteSpace=wrap;html=1;container=0;" parent="82" vertex="1">
                    <mxGeometry width="120" height="70" as="geometry"/>
                </mxCell>
                <mxCell id="25" style="edgeStyle=orthogonalEdgeStyle;rounded=0;orthogonalLoop=1;jettySize=auto;html=1;" parent="82" edge="1">
                    <mxGeometry relative="1" as="geometry">
                        <mxPoint x="230" y="34.59000000000003" as="targetPoint"/>
                        <mxPoint x="120" y="34.59000000000003" as="sourcePoint"/>
                        <Array as="points">
                            <mxPoint x="190" y="34.59000000000003"/>
                        </Array>
                    </mxGeometry>
                </mxCell>
                <mxCell id="26" value="num detections" style="edgeLabel;html=1;align=center;verticalAlign=middle;resizable=0;points=[];container=0;" parent="25" vertex="1" connectable="0">
                    <mxGeometry x="-0.0238" y="-2" relative="1" as="geometry">
                        <mxPoint y="-2" as="offset"/>
                    </mxGeometry>
                </mxCell>
                <mxCell id="28" style="edgeStyle=orthogonalEdgeStyle;rounded=0;orthogonalLoop=1;jettySize=auto;html=1;" parent="82" edge="1">
                    <mxGeometry relative="1" as="geometry">
                        <mxPoint x="229.94000000000005" y="9.709999999999923" as="targetPoint"/>
                        <mxPoint x="119.94" y="9.709999999999923" as="sourcePoint"/>
                        <Array as="points">
                            <mxPoint x="189.94000000000005" y="9.709999999999923"/>
                        </Array>
                    </mxGeometry>
                </mxCell>
                <mxCell id="29" value="network" style="edgeLabel;html=1;align=center;verticalAlign=middle;resizable=0;points=[];container=0;" parent="28" vertex="1" connectable="0">
                    <mxGeometry x="-0.1212" y="-3" relative="1" as="geometry">
                        <mxPoint x="2" y="-3" as="offset"/>
                    </mxGeometry>
                </mxCell>
                <mxCell id="30" style="edgeStyle=orthogonalEdgeStyle;rounded=0;orthogonalLoop=1;jettySize=auto;html=1;" parent="82" edge="1">
                    <mxGeometry relative="1" as="geometry">
                        <mxPoint x="229.94000000000005" y="59.999999999999886" as="targetPoint"/>
                        <mxPoint x="119.94000000000005" y="59.999999999999886" as="sourcePoint"/>
                        <Array as="points">
                            <mxPoint x="189.94000000000005" y="59.999999999999886"/>
                        </Array>
                    </mxGeometry>
                </mxCell>
                <mxCell id="31" value="detection" style="edgeLabel;html=1;align=center;verticalAlign=middle;resizable=0;points=[];container=0;" parent="30" vertex="1" connectable="0">
                    <mxGeometry x="-0.1212" y="-3" relative="1" as="geometry">
                        <mxPoint x="2" y="-3" as="offset"/>
                    </mxGeometry>
                </mxCell>
                <mxCell id="174" style="edgeStyle=orthogonalEdgeStyle;rounded=0;orthogonalLoop=1;jettySize=auto;html=1;" parent="179" edge="1">
                    <mxGeometry relative="1" as="geometry">
                        <mxPoint x="40" y="24.680000000000064" as="targetPoint"/>
                        <mxPoint x="-70" y="24.680000000000064" as="sourcePoint"/>
                        <Array as="points">
                            <mxPoint y="24.680000000000064"/>
                        </Array>
                    </mxGeometry>
                </mxCell>
                <mxCell id="175" value="image" style="edgeLabel;html=1;align=center;verticalAlign=middle;resizable=0;points=[];container=0;" parent="174" vertex="1" connectable="0">
                    <mxGeometry x="-0.0238" y="-2" relative="1" as="geometry">
                        <mxPoint y="-2" as="offset"/>
                    </mxGeometry>
                </mxCell>
                <mxCell id="176" style="edgeStyle=orthogonalEdgeStyle;rounded=0;orthogonalLoop=1;jettySize=auto;html=1;" parent="179" edge="1">
                    <mxGeometry relative="1" as="geometry">
                        <mxPoint x="40" y="44.25999999999999" as="targetPoint"/>
                        <mxPoint x="-70" y="44.25999999999999" as="sourcePoint"/>
                        <Array as="points">
                            <mxPoint y="44.25999999999999"/>
                        </Array>
                    </mxGeometry>
                </mxCell>
                <mxCell id="177" value="valid image" style="edgeLabel;html=1;align=center;verticalAlign=middle;resizable=0;points=[];container=0;" parent="176" vertex="1" connectable="0">
                    <mxGeometry x="-0.1212" y="-3" relative="1" as="geometry">
                        <mxPoint x="2" y="-3" as="offset"/>
                    </mxGeometry>
                </mxCell>
                <mxCell id="181" value="" style="group" parent="1" vertex="1" connectable="0">
                    <mxGeometry x="1380" y="277.5" width="270" height="80" as="geometry"/>
                </mxCell>
                <mxCell id="137" style="edgeStyle=orthogonalEdgeStyle;rounded=0;orthogonalLoop=1;jettySize=auto;html=1;" parent="181" edge="1">
                    <mxGeometry relative="1" as="geometry">
                        <mxPoint x="39.99999999999977" y="9.439999999999884" as="targetPoint"/>
                        <mxPoint x="-70" y="9.439999999999884" as="sourcePoint"/>
                        <Array as="points">
                            <mxPoint y="9.439999999999884"/>
                        </Array>
                    </mxGeometry>
                </mxCell>
                <mxCell id="138" value="valid image" style="edgeLabel;html=1;align=center;verticalAlign=middle;resizable=0;points=[];container=0;" parent="137" vertex="1" connectable="0">
                    <mxGeometry x="-0.1212" y="-3" relative="1" as="geometry">
                        <mxPoint x="2" y="-3" as="offset"/>
                    </mxGeometry>
                </mxCell>
                <mxCell id="139" style="edgeStyle=orthogonalEdgeStyle;rounded=0;orthogonalLoop=1;jettySize=auto;html=1;" parent="181" edge="1">
                    <mxGeometry relative="1" as="geometry">
                        <mxPoint x="39.92999999999995" y="29.680000000000064" as="targetPoint"/>
                        <mxPoint x="-70.07000000000005" y="29.680000000000064" as="sourcePoint"/>
                        <Array as="points">
                            <mxPoint x="39.92999999999995" y="29.67999999999995"/>
                        </Array>
                    </mxGeometry>
                </mxCell>
                <mxCell id="140" value="mav veh state" style="edgeLabel;html=1;align=center;verticalAlign=middle;resizable=0;points=[];" parent="139" vertex="1" connectable="0">
                    <mxGeometry x="-0.0238" y="-2" relative="1" as="geometry">
                        <mxPoint y="-1" as="offset"/>
                    </mxGeometry>
                </mxCell>
                <mxCell id="141" style="edgeStyle=orthogonalEdgeStyle;rounded=0;orthogonalLoop=1;jettySize=auto;html=1;" parent="181" edge="1">
                    <mxGeometry relative="1" as="geometry">
                        <mxPoint x="40" y="50.00000000000006" as="targetPoint"/>
                        <mxPoint x="-70" y="50.00000000000006" as="sourcePoint"/>
                        <Array as="points">
                            <mxPoint x="40" y="49.99999999999994"/>
                        </Array>
                    </mxGeometry>
                </mxCell>
                <mxCell id="142" value="batt (I,V,SOC)" style="edgeLabel;html=1;align=center;verticalAlign=middle;resizable=0;points=[];" parent="141" vertex="1" connectable="0">
                    <mxGeometry x="-0.0238" y="-2" relative="1" as="geometry">
                        <mxPoint y="-1" as="offset"/>
                    </mxGeometry>
                </mxCell>
                <mxCell id="143" style="edgeStyle=orthogonalEdgeStyle;rounded=0;orthogonalLoop=1;jettySize=auto;html=1;" parent="181" edge="1">
                    <mxGeometry relative="1" as="geometry">
                        <mxPoint x="40" y="70.00000000000006" as="targetPoint"/>
                        <mxPoint x="-70" y="70.00000000000006" as="sourcePoint"/>
                        <Array as="points">
                            <mxPoint x="40" y="69.99999999999994"/>
                        </Array>
                    </mxGeometry>
                </mxCell>
                <mxCell id="144" value="height" style="edgeLabel;html=1;align=center;verticalAlign=middle;resizable=0;points=[];" parent="143" vertex="1" connectable="0">
                    <mxGeometry x="-0.0238" y="-2" relative="1" as="geometry">
                        <mxPoint y="-1" as="offset"/>
                    </mxGeometry>
                </mxCell>
                <mxCell id="145" style="edgeStyle=none;html=1;exitX=1;exitY=0.5;exitDx=0;exitDy=0;strokeWidth=1;" parent="181" source="x8476iQVBlh_GbGHP3KB-26" edge="1">
                    <mxGeometry relative="1" as="geometry">
                        <mxPoint x="270" y="40.36363636363626" as="targetPoint"/>
                    </mxGeometry>
                </mxCell>
                <mxCell id="146" value="system state" style="edgeLabel;html=1;align=center;verticalAlign=middle;resizable=0;points=[];" parent="145" vertex="1" connectable="0">
                    <mxGeometry x="-0.1468" y="2" relative="1" as="geometry">
                        <mxPoint x="3" y="2" as="offset"/>
                    </mxGeometry>
                </mxCell>
                <mxCell id="x8476iQVBlh_GbGHP3KB-26" value="System Controller" style="rounded=0;whiteSpace=wrap;html=1;container=0;" parent="181" vertex="1">
                    <mxGeometry x="40" width="120" height="80" as="geometry"/>
                </mxCell>
                <mxCell id="196" style="edgeStyle=none;html=1;exitX=1;exitY=0.5;exitDx=0;exitDy=0;dashed=1;strokeWidth=1;shape=flexArrow;startSize=6;" edge="1" parent="181">
                    <mxGeometry relative="1" as="geometry">
                        <mxPoint x="280" y="72.99999999999989" as="targetPoint"/>
                        <mxPoint x="160" y="72.5" as="sourcePoint"/>
                    </mxGeometry>
                </mxCell>
                <mxCell id="197" value="initializations" style="edgeLabel;html=1;align=center;verticalAlign=middle;resizable=0;points=[];" vertex="1" connectable="0" parent="196">
                    <mxGeometry x="-0.4952" relative="1" as="geometry">
                        <mxPoint x="20" y="-13" as="offset"/>
                    </mxGeometry>
                </mxCell>
                <mxCell id="194" value="" style="group" parent="1" vertex="1" connectable="0">
                    <mxGeometry x="10" y="570" width="230" height="60" as="geometry"/>
                </mxCell>
                <mxCell id="x8476iQVBlh_GbGHP3KB-14" value="Jetson IO" style="rounded=0;whiteSpace=wrap;html=1;dashed=1;container=0;dashPattern=1 1;" parent="194" vertex="1">
                    <mxGeometry width="120" height="60" as="geometry"/>
                </mxCell>
                <mxCell id="x8476iQVBlh_GbGHP3KB-117" style="edgeStyle=orthogonalEdgeStyle;rounded=0;orthogonalLoop=1;jettySize=auto;html=1;dashed=1;dashPattern=1 1;" parent="194" edge="1">
                    <mxGeometry relative="1" as="geometry">
                        <mxPoint x="230" y="19.659999999999968" as="targetPoint"/>
                        <mxPoint x="120" y="19.659999999999968" as="sourcePoint"/>
                        <Array as="points">
                            <mxPoint x="230" y="19.659999999999968"/>
                        </Array>
                    </mxGeometry>
                </mxCell>
                <mxCell id="x8476iQVBlh_GbGHP3KB-118" value="green led" style="edgeLabel;html=1;align=center;verticalAlign=middle;resizable=0;points=[];container=0;" parent="x8476iQVBlh_GbGHP3KB-117" vertex="1" connectable="0">
                    <mxGeometry x="-0.0238" y="-2" relative="1" as="geometry">
                        <mxPoint y="-2" as="offset"/>
                    </mxGeometry>
                </mxCell>
                <mxCell id="x8476iQVBlh_GbGHP3KB-119" style="edgeStyle=orthogonalEdgeStyle;rounded=0;orthogonalLoop=1;jettySize=auto;html=1;dashed=1;dashPattern=1 1;" parent="194" edge="1">
                    <mxGeometry relative="1" as="geometry">
                        <mxPoint x="230" y="39.65999999999997" as="targetPoint"/>
                        <mxPoint x="120" y="39.65999999999997" as="sourcePoint"/>
                        <Array as="points">
                            <mxPoint x="190" y="39.65999999999997"/>
                        </Array>
                    </mxGeometry>
                </mxCell>
                <mxCell id="x8476iQVBlh_GbGHP3KB-120" value="red led" style="edgeLabel;html=1;align=center;verticalAlign=middle;resizable=0;points=[];container=0;" parent="x8476iQVBlh_GbGHP3KB-119" vertex="1" connectable="0">
                    <mxGeometry x="-0.0238" y="-2" relative="1" as="geometry">
                        <mxPoint y="-2" as="offset"/>
                    </mxGeometry>
                </mxCell>
                <mxCell id="195" value="&lt;div style=&quot;&quot;&gt;&lt;span style=&quot;background-color: initial;&quot;&gt;This diagram shows the software components that exist, the interfaces and functions they provide, and the interfaces and functions they consume.&amp;nbsp; A legend is provided to describe the meanings of different symbols.&lt;/span&gt;&lt;/div&gt;&lt;div style=&quot;&quot;&gt;&lt;span style=&quot;background-color: initial;&quot;&gt;&lt;br&gt;&lt;/span&gt;&lt;/div&gt;&lt;div style=&quot;&quot;&gt;Each function that is run periodically has an init, loop, and shutdown function.&lt;/div&gt;" style="text;html=1;align=left;verticalAlign=middle;whiteSpace=wrap;rounded=0;" vertex="1" parent="1">
                    <mxGeometry x="10" y="60" width="340" height="120" as="geometry"/>
                </mxCell>
            </root>
        </mxGraphModel>
    </diagram>
</mxfile>